<?xml version="1.0" encoding="utf-8"?>
<!-- Generator: Adobe Illustrator 16.0.2, SVG Export Plug-In . SVG Version: 6.00 Build 0)  -->
<!DOCTYPE svg PUBLIC "-//W3C//DTD SVG 1.1//EN" "http://www.w3.org/Graphics/SVG/1.1/DTD/svg11.dtd">
<svg version="1.1" id="圖層_1" xmlns="http://www.w3.org/2000/svg" xmlns:xlink="http://www.w3.org/1999/xlink" x="0px" y="0px"
	 width="128.135px" height="108.403px" viewBox="0 0 128.135 108.403" enable-background="new 0 0 128.135 108.403"
	 xml:space="preserve">
<g>
	<path fill="#58595B" d="M99.2,108.402c-0.455-4.137-0.969-7.139-0.969-7.139s28.197,3.139,28.912-4.682
		c0.117-1.287,4.008-10.854-4.471-12.5c-8.596-1.668-14.215-0.934-19.498-0.402l-3.977-0.559L96.34,71.087
		c-1.303-6.418-1.43-9.678-2.402-25.084c-0.895-14.152-7.578-27.316-7.578-27.316s-7.783-7.674-17.709-9.31
		c-9.196-1.519-21.635-2.892-28.299,0c-7.264,3.147-16.597,13.034-19.101,22.718c-2.504,9.684-3.936,29.051-3.936,29.051
		S6.404,82.376,4.794,88.707C3.76,92.775,0.884,101.753,0,108.402H99.2z"/>
	<path fill="#58595B" d="M25.894,29.437c0,0-19.229-12.66-9.721-24.07c0.296-0.355,0.535-0.748,0.922-1.035
		c6.192-4.563,12.76-5.488,17.273-2.934c5.384,3.049,8.147,14.998,8.147,14.998"/>
	<path fill="#58595B" d="M89.786,28.212c0,0,15.654-11.586,7.914-22.029c-0.242-0.324-0.436-0.686-0.75-0.945
		C91.909,1.06,84.745,1.359,82.887,2.552c-0.73,0.469-3.836,3.432-5,5.956c-1.797,3.896-1.633,7.769-1.633,7.769"/>
	<path fill="#FFFFFF" d="M16.086,61.052l34.266,20.111c0,0,7.449,3.354,16.76-2.607c9.313-5.957,30.541-19.738,30.541-19.738
		s0.746,1.488-3.723,7.82c-4.471,6.332-13.119,18.623-21.313,22.348c-8.194,3.725-21.148,7.822-33.066,0
		c-11.918-7.822-23.465-19.367-23.465-19.367s-3.724-4.842-1.862-6.705"/>
	<path fill="#FFFFFF" d="M45.62,66.755c0,0-13.036-8.379-7.101-18.809c3.223-5.662,8.003-8.193,15.452-8.193
		c7.449,0,16.387,1.117,18.995,8.939c2.607,7.82-2.867,14.785-4.469,16.387c-4.097,4.098-16.168,3.982-16.168,3.982"/>
	<circle fill="#FFFFFF" cx="39.353" cy="30.199" r="4.842"/>
	<circle fill="#FFFFFF" cx="74.736" cy="30.572" r="4.47"/>
	<circle fill="#221E1F" cx="39.733" cy="29.818" r="2.509"/>
	<circle fill="#221E1F" cx="74.736" cy="30.199" r="2.509"/>
	<path fill="#221E1F" d="M48.478,53.478c0,0-4.656-2.049-4.283-6.146c0.372-4.098,1.862-3.725,4.283-4.283s14.525,0,14.525,0
		s2.793,0.559,3.353,3.352c0.559,2.793-1.304,6.891-3.725,7.078"/>
	<g>
		<g>
			<path fill="#221E1F" d="M53.358,54.109c1.758,3.334,0.985,7.482,0.947,11.1c-0.017,1.613,2.483,1.611,2.5,0
				c0.043-4.146,0.725-8.541-1.289-12.361C54.765,51.419,52.607,52.683,53.358,54.109L53.358,54.109z"/>
		</g>
	</g>
	<g>
		<g>
			<path fill="#221E1F" d="M45.359,64.417c2.211,1.955,5.302,2.02,8.114,1.992c3.579-0.031,7.413-0.281,10.794-1.486
				c1.507-0.537,0.858-2.953-0.665-2.41c-3.664,1.307-13.192,3.041-16.475,0.137C45.924,61.585,44.149,63.347,45.359,64.417
				L45.359,64.417z"/>
		</g>
	</g>
</g>
</svg>
