<?xml version="1.0" encoding="utf-8"?>
<!-- Generator: Adobe Illustrator 16.0.2, SVG Export Plug-In . SVG Version: 6.00 Build 0)  -->
<!DOCTYPE svg PUBLIC "-//W3C//DTD SVG 1.1//EN" "http://www.w3.org/Graphics/SVG/1.1/DTD/svg11.dtd">
<svg version="1.1" id="圖層_1" xmlns="http://www.w3.org/2000/svg" xmlns:xlink="http://www.w3.org/1999/xlink" x="0px" y="0px"
	 width="348.685px" height="59.697px" viewBox="0 0 348.685 59.697" enable-background="new 0 0 348.685 59.697"
	 xml:space="preserve">
<g>
	<path fill="#585C5F" d="M36.359,16.199l2.34-5.34l4.319,3.84l-4.8,10.619h1.68l2.939-2.76l3.061,2.46l-5.04,9.72h6.06l5.16-4.38
		l4.74,4.081l-2.82,4.08c-1.08,7.02-1.439,10.02-3.061,13.619c-1.739,3.779-5.039,6.898-5.879,7.02c-0.84,0.119-3.42-4.02-7.08-4.74
		v-0.84c0,0,6.48,0.779,7.68-2.16c1.141-2.879,2.16-9.84,2.641-15.238H17.58c-5.34,16.018-14.52,21.598-17.1,23.338l-0.42-0.42
		c0.84-1.141,17.1-15.299,15.659-46.318c-6.3,4.979-12.479,8.88-15.54,9.6L0,22.079c1.2-0.78,11.76-6.96,18.479-20.999l3.72,5.76
		c5.16-0.721,13.5-2.101,19.199-6.06l4.439,4.979c2.94,1.08,8.221,3.66,8.34,4.38c0.12,0.72-0.72,3.3-1.08,4.14
		c-0.359,0.84-2.459,2.46-2.939,2.46S47.639,9.899,44.338,6c-4.02,0.899-8.76,1.56-13.139,1.92c0.66,1.26,2.039,3.899,2.1,4.38
		c0.12,0.479-0.66,2.819-1.26,3.84L36.359,16.199z M20.939,38.699c0.24,0.779,0.66,9.299,0.42,10.68
		c-0.24,1.379-4.62,4.318-5.04,4.379s-1.44-2.459-1.44-3.059c0-0.602,3.42-4.08,4.261-7.021c1.02-3.539,1.079-5.699,1.86-4.979
		H20.939z M28.439,16.14c-0.061-0.66-0.121-2.16,0.119-3.12c0.301-1.141,1.44-2.7,1.021-5.04c-3.24,0.18-6.239,0.18-8.52,0
		l-3.84,3.24l4.02,1.979c-0.06,0.96-0.12,1.92-0.18,2.82h7.38V16.14z M20.1,26.579c-0.54,2.939-1.2,5.64-1.98,8.101h18.779
		l2.04-8.041L20.1,26.579z M21.239,17.579c-0.239,2.52-0.54,5.46-0.899,7.68h14.279l2.1-7.739L21.239,17.579z M28.379,38.879
		c0.36,1.74,0.6,6.9,0.301,9c-0.301,2.1-2.881,4.199-3.48,4.5c-0.6,0.299-1.439-1.561-1.439-2.102c0-0.539,1.859-4.139,2.52-7.078
		c0.66-2.941,1.56-5.281,2.16-4.32H28.379z M34.738,37.859c0.721,1.199,1.92,5.279,2.101,6.539c0.12,1.199-2.46,6.6-3.24,6.959
		c-0.84,0.361-1.86-2.459-1.92-3.059s1.38-2.641,1.681-5.279c0.299-2.641,0.539-5.221,1.319-5.102L34.738,37.859z M40.318,37.26
		c1.561,2.34,3.359,7.619,3.48,8.639c0.119,1.02-3.24,5.879-4.141,5.279c-0.899-0.6,0.36-6.539,0.301-8.34
		c-0.061-1.799-0.301-5.939,0.479-5.578H40.318z"/>
	<path fill="#585C5F" d="M103.139,8.34c3.3,0.359,16.14,8.039,17.819,12.299c1.26,2.88-1.44,8.52-2.76,8.22
		c-1.021-0.239-3.84-5.159-6.36-9.239c-11.879,2.52-40.918,5.22-40.918,5.22l-2.76-5.64c3.3,0.06,7.02,0.06,10.859,0
		C81.66,16.499,88.379,9.3,93.299,0.3l8.04,3.18c0,0-9.54,9.479-18.839,15.6c11.699-0.3,23.699-1.02,28.198-1.32
		c-0.42-0.6-0.78-1.14-1.14-1.619c-2.82-3.9-7.08-7.98-6.42-7.92V8.34z M82.799,52.078v4.02c0,0-2.819,2.34-3.6,2.461
		c-0.779,0.119-2.459-2.76-2.459-2.76c1.199-15.48,0.119-28.32,0.119-28.32l5.46,3h24.3l3.839-4.739l5.4,4.56l-2.46,2.881
		c0.24,6.42,0.78,20.219,0.78,20.879s-4.921,4.32-5.341,4.32c-0.359,0-1.739-4.682-2.159-6.182L82.799,52.078z M107.338,31.979
		H82.859l-0.061,18.539h24.779L107.338,31.979z"/>
	<path fill="#585C5F" d="M136.5,43.498c-0.6-3.42-2.7-3.539-4.2-4.619c-0.479-0.359,0.96-0.301,2.88,0.061
		c4.62,0.299,4.8-2.941,5.04-3.9l7.26-28.02l0.24,0.18c0,0-3.84,19.26-5.64,34.379c-0.3,3.361,2.1,9.721,0,12.42
		c-0.54,0.721-2.4,2.34-3.66,2.34c-0.9-0.119-1.86-0.779-2.399-1.799C136.021,51.898,137.28,47.879,136.5,43.498z M136.92,26.759
		c-1.86-0.84,0-4.62-1.8-7.26c-1.38-2.04-2.34-3.96-1.26-3.78c1.5,0.24,7.439,3.12,7.68,5.04s-0.66,6.9-4.561,5.94L136.92,26.759z
		 M140.22,9.3c-1.02-2.58-3.54-5.101-4.62-6.48c-1.079-1.38,4.92,0.54,6.12,0.78c1.14,0.24,2.939,2.22,3.12,2.94
		c0.24,0.72-1.44,4.979-2.04,5.76c-0.6,0.779-1.56-0.301-2.58-2.88V9.3z M151.619,20.759c0.181,0.78,0.48,5.28,0.48,5.88
		s-3,4.56-3.48,4.68c-0.479,0.121-1.859-2.46-1.859-2.88s2.64-2.34,3.239-4.199c0.601-1.86,1.141-3.42,1.62-3.42V20.759z
		 M162.119,10.199l-3,2.94c0.96,0.899,3.06,3.479,3.12,4.199c0.12,0.84-0.301,4.86-1.141,4.44c-0.6-0.301-0.779-1.92-1.5-4.68
		c-1.14,0.359-1.38,0.479-2.64,0.72c0.061,2.1,0.24,11.699,0.12,12.06c-0.12,0.42-2.88,1.801-3.12,1.561
		c-0.239-0.18-0.239-10.561-0.239-12.9c-3.24,0.6-5.04,0.78-5.04,0.78l-1.5-2.82c1.319,0.12,4.02,0,7.199-0.18
		c1.2-1.74,4.38-6.3,5.76-9.12L162.119,10.199z M183.658,39.059l6.48,4.381l-3.961,2.52c-1.08,2.76-2.039,4.799-6.658,8.639
		c-2.701,2.34-12.78,5.881-13.8,3.781c-0.72-1.621-0.12-2.762-0.72-3.84c-0.54-1.08-2.4-1.861-2.4-1.861v-0.359
		c0,0,6.3,1.32,8.82,0.66c2.459-0.66,6.059-1.439,8.04-7.26H155.1c-0.301,1.799-0.601,1.98-0.841,2.34
		c-0.539,0.9-4.379,2.219-5.459,2.459s-1.74-0.84-0.721-2.699c1.021-1.859,4.681-12.24,4.681-12.24l3.659,3.18h18.54
		c0.119-1.979,0.301-3.18,0.42-4.26h-7.799c-1.08,0-12.12,0.541-12.12,0.541l-1.56-1.859c0,0,0.18-0.42,0.84-0.361
		c2.04,0.18,6.18,0.121,7.02,0.121h12.36l3.061-3.36l4.738,2.761l-1.738,1.979c0.238,2.76,0.658,4.92-0.121,5.939
		c-0.779,1.021-4.619,2.221-5.039,2.102c-0.121-0.061-0.121-0.961-0.061-2.221h-18.78c-0.119,0.84-0.359,2.52-0.659,4.26h23.279
		L183.658,39.059z M161.279,3.54c0,0-5.16,3.899-7.44,5.159c1.021,0.721,1.801,1.32,1.801,1.5c0.06,0.42-2.28,4.08-2.7,4.08
		s-1.32-2.1-1.74-3.6s-0.96-2.641-1.739-3.6c-0.78-0.961-1.021-1.62-0.421-1.561c0.721,0.36,2.341,1.38,3.78,2.34
		c1.08-0.84,3.42-4.859,4.62-7.739L161.279,3.54z M155.819,16.199c1.5-0.06,2.76-0.12,3.42-0.18c-0.24-0.721-0.48-1.5-0.78-2.4
		L155.819,16.199z M158.759,21.239c0.721,0.479,3.66,3.659,3.72,4.439c0.061,0.78-2.22,3.84-2.52,3.6c-0.3-0.239-0.84-3.479-1.2-5.1
		c-0.359-1.62-0.6-3.12,0.061-2.939H158.759z M172.379,7.439h-5.04c-0.84,0-4.14,0.18-4.14,0.18l-1.2-1.38c0,0-0.18-0.3,0.66-0.3
		c1.319,0.18,2.88,0.18,3.84,0.18c-0.061-1.739-0.181-4.14-0.3-6.119c0,0,4.02,0.899,6.119,1.8l-1.02,2.52v1.86h0.96l2.639-1.32
		l1.621,2.34c0.42,0.66-3.18,0.301-4.26,0.301L172.379,7.439z M167.759,15.779c-0.84,0-4.439,0.18-4.439,0.18l-1.2-1.38
		c0,0-0.181-0.3,0.66-0.3c1.619,0.18,3.96,0.18,4.619,0.18h4.68l2.101-1.319l1.619,2.34c0.42,0.66-3.18,0.3-4.26,0.3H167.759z
		 M169.198,11.459c-0.84,0-4.439,0.181-4.439,0.181l-1.2-1.38c0,0-0.18-0.301,0.66-0.301c1.62,0.181,3.96,0.181,4.62,0.181h2.34
		l2.1-1.32l1.619,2.34c0.42,0.66-3.179,0.3-4.259,0.3H169.198z M163.858,18.239l3.42,1.56h2.4l2.22-2.34l3.3,2.22l-1.68,1.561v3.84
		c0,0.6,0,1.92-0.72,1.92h-5.101l0.12,2.1l-3.539,1.38L163.858,18.239z M169.979,25.619v-4.5h-2.399l0.119,4.5H169.979z
		 M177.417,20.279c0.48,0.6,1.021,3.479,1.021,4.08c0,0.6-1.801,3.84-2.16,3.899c-0.361,0.06-1.5-1.5-1.5-1.8s1.799-2.7,1.98-3.72
		c0.18-1.021,0.299-2.521,0.6-2.46H177.417z M185.398,12.539c1.141,1.26,3,3.42,3.359,3.96c0.361,0.601-0.779,3.9-1.5,3.78
		c-0.479-0.12-1.08-1.68-1.559-3.24c-0.84,0.24-1.26,0.48-2.281,0.72c0.061,2.34,0.24,9.9,0.24,10.2c0,0.359-1.619,1.92-1.619,1.92
		s-2.041-0.84-2.041-1.2c0-0.3,0.061-7.979,0.061-10.38l-3,0.721l-1.379-2.28c0.719,0,1.859-0.06,3.119-0.18
		c1.5-1.561,4.32-4.98,6.9-11.1c0,0,2.818,3.119,2.879,3.42c0.061,0.12-1.379,1.859-3.24,3.659H185.398z M185.158,3.779
		c-4.619,3.96-6.059,3.66-5.82,3.9c0.361,0.359,1.801,1.74,1.682,4.02c0,0-0.42,2.1-2.461,1.5c-1.32-0.6-0.84-1.74-0.539-2.46
		c0.299-0.72,0.42-1.8,0.119-2.76c-0.24-0.72-0.24-1.02,0.24-1.38s2.221-2.82,3.539-6.18L185.158,3.779z M184.738,13.14
		c-1.439,1.319-3,2.579-4.32,3.239c1.92-0.239,3.9-0.54,4.92-0.66c-0.119-0.42-0.18-0.779-0.24-1.079
		c-0.119-0.601-0.238-1.141-0.299-1.561L184.738,13.14z M184.378,19.979c1.379,0.54,4.859,4.02,5.039,5.459
		c0.18,1.44-0.719,3.36-1.199,3.54s-2.34-1.5-2.58-3.18s-0.301-2.34-0.721-3.479c-0.42-1.141-1.08-2.28-0.539-2.28V19.979z"/>
	<path fill="#585C5F" d="M212.4,22.499c-0.061,3.18-0.6,31.679-0.6,32.339c0,0.721-2.82,2.16-3.24,2.16s-1.621-2.221-1.621-2.641
		s1.441-29.759,0-36.179l6,3h8.34c1.621-2.46,4.68-7.619,5.701-12.959h-14.881c-1.02,0-8.34,0.24-8.34,0.24l-2.1-1.92
		c0,0-0.24-0.301,0.781-0.301c1.92,0.181,8.459,0.54,9.238,0.54h33.539l5.221-4.319l4.199,5.34c0.539,0.72-3.721,0.359-4.98,0.359
		H228.9l3.779,3.12c0,0-4.859,6.24-8.34,9.84h15.6l3.6-5.34l6.24,3.3l-2.041,3.42c0.24,12.899,0.9,29.278,0.24,30.54
		c-0.66,1.26-6.719,4.859-7.26,4.738c-0.539-0.119-0.539-4.26-3.719-4.559v-0.721c0,0,5.879-0.66,5.998-1.92
		c0.121-1.26,0.42-22.499-0.299-28.079h-7.439c0.059,4.62,0.42,27.899,0.42,28.38c0,0.539-3.061,2.76-3.361,2.52
		c-0.299-0.24-1.26-0.779-1.379-2.58c-0.061-1.561-0.061-23.399-0.061-28.379h-6.359c-0.061,3.359-0.301,27.6-0.301,28.139
		c0,0.6-2.219,3.061-2.639,2.939c-0.42-0.119-2.279-2.1-2.16-3.119c0.119-0.961,0.42-23.279,0.539-28.079L212.4,22.499z"/>
	<path fill="#585C5F" d="M297.24,20.759c-1.08,0.181-2.041,0.061-2.82,0.061h-7.02c-2.281,2.46-4.381,5.1-7.26,7.739h8.219
		l2.34-4.38c0,0,4.439,3.66,5.16,4.08c0.9,0.54-0.24,1.92-2.641,2.94l-6.299,5.04c0.061,0.541,0.119,1.621,0.119,2.941l11.76-1.08
		l0.061,0.479l-11.82,3.361c0,3.299-0.059,7.078-0.299,8.939c-0.42,2.459-6.061,5.76-6.721,5.58c-0.66-0.182-0.18-4.201-3-5.34
		h-0.299v-0.301c0.42-0.061,0.9-0.119,1.439-0.18c1.92-0.301,3.24-0.42,3.359-1.98l0.42-5.279
		c-5.879,1.619-11.039,2.879-10.92,2.459c-1.318-1.619-2.459-4.199-2.34-5.039L282.24,39.6l0.359-4.08c0,0,0-2.4,0.961-2.1
		c0.42,0.119,1.139,0.539,1.799,1.02l3.121-4.621h-9.9c-5.1,4.561-8.1,7.141-14.16,10.32l-0.18-0.24
		c5.221-3.959,10.26-9.6,17.459-19.199h-8.34c-0.84,0-7.02,0.66-7.02,0.66l-0.66-2.04c0,0,0.182-0.42,0.541-0.36
		c1.439,0.18,4.5,0.36,5.219,0.36h6.721v-8.16h-1.98c-0.84,0-7.02,0.66-7.02,0.66l-0.959-2.16c0,0,0.119-0.359,0.42-0.3
		c1.439,0.24,4.26,0.48,4.979,0.48h4.561V5.699c0,0-0.18-4.079-0.359-4.619c-0.061-0.96,0.479-0.721,1.08-0.54
		c0.42,0,4.92,2.16,4.92,2.16l-1.08,2.939v4.26h6.299c1.08-1.8,2.1-3.66,3.061-5.52l5.459,3.42c0,0-3.84,5.88-9.059,11.64h3.059
		l3.361-2.641l2.219,3.9L297.24,20.759z M323.337,49.799c0,0-2.459,0-6.779,4.26c-3.959-3.121-7.68-6.84-10.139-10.859
		c-4.5,6.299-15.541,14.818-25.26,16.498l-0.24-0.119c7.68-3.359,18.24-11.879,22.859-21c-1.68-3.359-3.359-11.279-3.24-17.819
		c-1.26,1.74-2.641,3.42-4.08,4.92l-0.24-0.12c3.961-7.319,6.301-17.879,7.98-24.898c-0.061-0.42,5.1,1.859,6.48,2.699
		c0,0-2.281,5.101-5.82,10.92h8.939l3.6-3.66l4.02,4.5c0,0.78-4.74,0.48-6,0.48h-2.76c2.1,1.08,4.801,2.699,5.34,3
		c0,0-1.859,1.56-2.279,2.52c-0.18,0.479-1.98,9.42-6.18,17.279c4.379,5.52,6.9,7.199,14.039,11.34L323.337,49.799z M282.839,11.22
		l0.061,7.859c1.799-2.28,3.84-5.16,5.459-7.8L282.839,11.22z M301.798,19.02c0.359,2.52,1.5,9.299,4.32,14.459
		c1.74-4.38,3.061-11.279,3.719-17.76h-5.879l-2.16,3.24V19.02z"/>
	<path fill="#585C5F" d="M348.685,48.928c0,2.031-0.742,3.713-2.227,5.039c-1.486,1.328-3.244,1.992-5.273,1.992
		c-2.031,0-3.789-0.684-5.273-2.051c-1.486-1.367-2.227-3.047-2.227-5.039s0.74-3.67,2.227-5.039
		c1.484-1.367,3.242-2.051,5.273-2.051c2.029,0,3.787,0.666,5.273,1.992c1.484,1.328,2.227,3.01,2.227,5.039V48.928z
		 M346.224,48.928c0-1.326-0.508-2.439-1.523-3.34c-1.018-0.898-2.207-1.348-3.574-1.348c-1.328,0-2.5,0.449-3.516,1.348
		c-1.018,0.9-1.523,2.014-1.523,3.34c0,1.328,0.506,2.441,1.523,3.34c1.016,0.898,2.188,1.348,3.516,1.348
		c1.367,0,2.557-0.449,3.574-1.348C345.716,51.369,346.224,50.256,346.224,48.928v-0.059V48.928z"/>
</g>
</svg>
